<svg width="161" height="161" viewBox="0 0 161 161" fill="none" xmlns="http://www.w3.org/2000/svg">
<circle cx="80.9609" cy="80.9547" r="79.9779" fill="#136C7A"/>
<path fill-rule="evenodd" clip-rule="evenodd" d="M118.817 119.271C114.141 127.17 100.552 150.123 84.7884 150.123C66.8722 150.123 67.0065 129.757 67.0967 116.091C67.1028 115.159 67.1087 114.258 67.1087 113.398C67.1087 104.74 60.1828 98.3611 50.7962 98.3611C35.3037 98.3611 26.4639 89.6124 26.4639 74.5753C26.4639 57.2604 43.5056 42.7703 63.9192 42.7703C69.3736 42.7703 75.2199 44.5006 79.9142 45.8899C83.063 46.8218 85.6935 47.6003 87.3398 47.6003C89.7091 47.6003 91.1677 44.6841 91.1677 40.8565C91.1677 36.8468 84.697 30.2852 78.8648 30.2852C77.7712 30.2852 77.2244 30.832 77.0422 32.0168C76.8599 34.7507 75.4017 36.6644 72.3944 36.6644C68.6217 36.6644 65.7868 34.7301 63.3081 33.0387C61.416 31.7476 59.7314 30.5981 57.9956 30.5587C55.7573 30.5587 54.4666 32.5486 52.9597 34.8716C50.8469 38.129 48.3092 42.0413 42.1386 42.0413C37.2175 42.0413 34.0279 39.0339 34.0279 34.4773C34.0279 31.3303 35.891 29.0365 37.9885 26.4543C40.6894 23.1291 43.779 19.3255 43.779 12.6056C43.779 11.7392 43.8696 10.8611 44.0569 9.98155C55.0979 4.22875 67.6497 0.976799 80.9609 0.976799C125.132 0.976799 160.939 36.7841 160.939 80.9547C160.939 86.0523 160.462 91.0386 159.55 95.8712C152.859 90.9904 149.774 81.2708 147.495 74.0914C145.899 69.0625 144.698 65.2799 142.931 65.2799C142.077 65.2799 141.537 65.8584 140.917 66.5226C140.081 67.4182 139.1 68.4696 137.007 68.4696C134.001 68.4696 129.743 64.7656 125.831 61.3634C122.509 58.4739 119.437 55.8021 117.596 55.8021C115.226 55.8021 113.039 58.3539 113.039 61.2701C113.039 63.2285 116.49 65.5237 120.426 68.141C125.647 71.6134 131.721 75.6528 131.721 80.2255C131.721 85.0501 128.144 89.5036 125.343 92.9904C123.542 95.2336 122.061 97.0766 122.061 98.3611C122.061 99.3841 122.167 100.544 122.283 101.811C122.693 106.298 123.225 112.126 119.601 117.954C119.377 118.326 119.115 118.768 118.817 119.271ZM103.633 26.9149C104.798 26.4669 106.006 26.0021 107.753 26.0021C108.582 26.0021 109.377 26.361 110.278 26.7679C111.458 27.3007 112.82 27.9158 114.679 27.9158C116.685 27.9158 118.234 26.0021 118.234 23.6326C118.234 19.3494 113.404 16.0686 107.025 16.0686C99.5515 16.0686 95.1776 18.5292 95.1776 22.9035C95.1776 25.7287 97.2736 27.7335 100.098 27.7335C101.504 27.7335 102.549 27.3315 103.633 26.9149Z" fill="#1CB4A8"/>
</svg>
